<?xml version="1.0" encoding="utf-8"?>
<!-- Generator: Adobe Illustrator 22.1.0, SVG Export Plug-In . SVG Version: 6.00 Build 0)  -->
<svg version="1.1" xmlns="http://www.w3.org/2000/svg" xmlns:xlink="http://www.w3.org/1999/xlink" x="0px" y="0px"
	 viewBox="0 0 841.9 595.3" style="enable-background:new 0 0 841.9 595.3;" xml:space="preserve">
<style type="text/css">
	.st0{fill-rule:evenodd;clip-rule:evenodd;fill:#1A509A;}
	.st1{fill-rule:evenodd;clip-rule:evenodd;fill:#4DA1F1;}
</style>
<g id="Layer_1">
</g>
<g id="Layer_2">
	<g>
		<path class="st0" d="M496.9,246.2c-1-3.1-6.5-16-8.4-17.6l1.8,10.9c10.5,125.7-143.9,109.9-128.5,20.8
			c4.9-20.2,15.4-34.6,34.6-43.2c13.2-6,36.5-8.6,46.3,4.2c1.2,1.5,2.6,5.2,2.5,7.6c-0.8,22-57,42.1-80.4,34.2
			c10.6,22,37.7,21.3,56.3,14.7c17.5-6.2,36.3-18.9,44.8-36c17.4-35-27-54.1-57.8-49.7c-69.7,9.9-92.1,100-36.5,143.2
			C432.4,382.5,522.4,322.6,496.9,246.2z"/>
		<path class="st1" d="M470.7,210.9c9.3,14.7,4.6,32.2-6.2,45c-22.8,28.5-65.1,40.7-96.7,22.1C423.8,340.7,515.7,284.4,470.7,210.9z
			"/>
	</g>
</g>
<g id="Layer_3">
	<path class="st0" d="M352.2,379.1c7.4,0,11.1,3.8,11.1,11.3c0,1-0.1,2-0.2,3h-16.2c0,3.4,2.5,5.2,7.6,5.2c2.5,0,4.9-0.2,7.4-0.7
		v4.9c-2.2,0.5-4.8,0.7-7.8,0.7c-8.8,0-13.3-4.2-13.3-12.5C340.7,383.1,344.5,379.1,352.2,379.1L352.2,379.1z M346.9,389.2h10.4V389
		c0-3.4-1.7-5.1-5.1-5.1C348.9,384,347.2,385.7,346.9,389.2L346.9,389.2z M367.9,402.1v-5.6c3.3,1.2,7.1,1.9,11.3,1.9
		c5.1,0,7.6-1.7,7.6-5.1c0-2.5-1.6-3.7-4.7-3.7h-5.2c-6.8,0-10.2-3.1-10.2-9.3c0-6.8,4.8-10.2,14.5-10.2c3.7,0,7.2,0.5,10.6,1.6v5.6
		c-3.3-1.2-6.8-1.9-10.6-1.9c-5.6,0-8.4,1.6-8.4,4.9c0,2.5,1.3,3.7,4,3.7h5.2c7.2,0,10.8,3.1,10.8,9.3c0,7-4.6,10.4-13.8,10.4
		C375,403.7,371.2,403.2,367.9,402.1L367.9,402.1z M397.2,375.2h4.6l0.9,3.9h6.1v4.9h-5.5v11.2c0,2.3,1,3.4,2.9,3.4h2.5v4.9h-5.5
		c-4.1,0-6.1-2.2-6.1-6.6V375.2L397.2,375.2z M423.3,379.1c7.4,0,11.1,3.8,11.1,11.3c0,1-0.1,2-0.2,3H418c0,3.4,2.5,5.2,7.6,5.2
		c2.5,0,4.9-0.2,7.4-0.7v4.9c-2.2,0.5-4.8,0.7-7.8,0.7c-8.8,0-13.3-4.2-13.3-12.5C411.9,383.1,415.7,379.1,423.3,379.1L423.3,379.1z
		 M418,389.2h10.4V389c0-3.4-1.7-5.1-5.1-5.1C420.1,384,418.3,385.7,418,389.2L418,389.2z M449.3,379.1c7.4,0,11.1,3.8,11.1,11.3
		c0,1-0.1,2-0.2,3H444c0,3.4,2.5,5.2,7.6,5.2c2.5,0,4.9-0.2,7.4-0.7v4.9c-2.2,0.5-4.8,0.7-7.8,0.7c-8.8,0-13.3-4.2-13.3-12.5
		C437.9,383.1,441.7,379.1,449.3,379.1L449.3,379.1z M444,389.2h10.4V389c0-3.4-1.7-5.1-5.1-5.1C446.1,384,444.3,385.7,444,389.2
		L444,389.2z M465,403.5v-24.4h4.8l0.7,3.5c2.2-2.4,4.8-3.5,7.9-3.5s5.2,1.1,6.3,3.3c2.5-2.2,5.1-3.3,7.8-3.3c5.6,0,8.4,3.1,8.4,9.3
		v15.1h-6.2v-15.3c0-2.7-1.2-4.1-3.7-4.1c-1.8,0-3.6,0.8-5.3,2.5v16.9h-6.1v-15.3c0-2.8-1.1-4.1-3.4-4.1c-1.8,0-3.5,0.8-5.1,2.5
		v16.9H465z"/>
</g>
</svg>
