<svg xmlns="http://www.w3.org/2000/svg" viewBox="0 0 226.06 167.31"><defs><style>.cls-1{fill:#004bd8;}</style></defs><title>ecency_logo_text</title><g id="Layer_2" data-name="Layer 2"><g id="Layer_1-2" data-name="Layer 1"><path class="cls-1" d="M36.47,141.78H12.28a7.76,7.76,0,0,0,1.57,4.33,5.72,5.72,0,0,0,4.56,2,6.75,6.75,0,0,0,3.38-.89,7.68,7.68,0,0,0,2.11-2l11.89,1.09a17,17,0,0,1-6.58,6.81q-3.86,2.06-11.06,2.06c-4.17,0-7.46-.59-9.85-1.76a14.49,14.49,0,0,1-5.94-5.61,16.93,16.93,0,0,1-2.36-9,15.88,15.88,0,0,1,4.73-12q4.72-4.56,13.06-4.56,6.77,0,10.68,2a13.87,13.87,0,0,1,6,5.93,21.73,21.73,0,0,1,2,10.11ZM24.2,136q-.36-3.51-1.89-5a5.46,5.46,0,0,0-4-1.51,5.46,5.46,0,0,0-4.6,2.29A8.27,8.27,0,0,0,12.31,136Z"/><path class="cls-1" d="M63.38,142.19l11.47,1.31a16.09,16.09,0,0,1-3.11,6.21,14.48,14.48,0,0,1-5.53,4.08,21.68,21.68,0,0,1-8.55,1.45,31.6,31.6,0,0,1-8.35-.93,14.56,14.56,0,0,1-5.74-3,15.37,15.37,0,0,1-3.77-4.91,17.21,17.21,0,0,1-1.36-7.46,17.55,17.55,0,0,1,1.66-8.09,14.63,14.63,0,0,1,3.32-4.25,15.26,15.26,0,0,1,4.33-2.8,24,24,0,0,1,9-1.45q7.71,0,11.75,2.75a14.56,14.56,0,0,1,5.68,8.07l-11.36,1.51a5.23,5.23,0,0,0-1.94-3,6.32,6.32,0,0,0-3.78-1,6.08,6.08,0,0,0-4.85,2.15q-1.84,2.15-1.85,6.49,0,3.88,1.84,5.89a6.07,6.07,0,0,0,4.68,2,6.46,6.46,0,0,0,4-1.22A7.28,7.28,0,0,0,63.38,142.19Z"/><path class="cls-1" d="M113.24,141.78H89a7.83,7.83,0,0,0,1.57,4.33,5.74,5.74,0,0,0,4.57,2,6.81,6.81,0,0,0,3.38-.89,7.81,7.81,0,0,0,2.1-2l11.89,1.09a17,17,0,0,1-6.58,6.81q-3.85,2.06-11.06,2.06-6.25,0-9.84-1.76a14.45,14.45,0,0,1-5.95-5.61,16.93,16.93,0,0,1-2.36-9,15.88,15.88,0,0,1,4.73-12q4.73-4.56,13.06-4.56,6.77,0,10.68,2a13.82,13.82,0,0,1,6,5.93,21.72,21.72,0,0,1,2,10.11ZM101,136q-.36-3.51-1.88-5a5.91,5.91,0,0,0-8.62.78A8.36,8.36,0,0,0,89.07,136Z"/><path class="cls-1" d="M116.66,123h11.23v5.13a16.66,16.66,0,0,1,5.1-4.49,13.44,13.44,0,0,1,6.29-1.35,10.27,10.27,0,0,1,7.84,3q2.83,3,2.84,9.2v20H137.83V137.21c0-2-.37-3.37-1.1-4.19a3.91,3.91,0,0,0-3.08-1.23,4.37,4.37,0,0,0-3.56,1.66q-1.36,1.65-1.37,6v15.12H116.66Z"/><path class="cls-1" d="M178.52,142.19,190,143.5a16.09,16.09,0,0,1-3.11,6.21,14.48,14.48,0,0,1-5.53,4.08,21.7,21.7,0,0,1-8.56,1.45,31.57,31.57,0,0,1-8.34-.93,14.56,14.56,0,0,1-5.74-3,15.37,15.37,0,0,1-3.77-4.91,17.21,17.21,0,0,1-1.36-7.46,17.55,17.55,0,0,1,1.66-8.09,14.63,14.63,0,0,1,3.32-4.25,15.13,15.13,0,0,1,4.33-2.8,24,24,0,0,1,9-1.45q7.71,0,11.76,2.75a14.56,14.56,0,0,1,5.68,8.07L178,134.66a5.23,5.23,0,0,0-1.94-3,6.32,6.32,0,0,0-3.78-1,6.08,6.08,0,0,0-4.85,2.15q-1.84,2.15-1.85,6.49,0,3.88,1.84,5.89a6.07,6.07,0,0,0,4.68,2,6.46,6.46,0,0,0,4-1.22A7.28,7.28,0,0,0,178.52,142.19Z"/><path class="cls-1" d="M188.91,123h12.73l6.5,21,6-21h11.89l-12.49,33.65c-1.43,3.83-2.88,6.43-4.36,7.77-2.09,1.9-5.29,2.85-9.57,2.85a70.25,70.25,0,0,1-8.07-.71l-.94-8.42a19.12,19.12,0,0,0,5.8.83,5.65,5.65,0,0,0,3.45-1,7.42,7.42,0,0,0,2.24-3.51Z"/><path class="cls-1" d="M129.15,103.52c-13.15.11-44.19.39-51.15-.42-5.65-.66-16-4.43-16.18-18.65-.07-8.19-.54-41.59.62-49,2.43-15.4,6.56-25.06,24.17-33C101.54-4,133.45,1.37,136.9,27.15c.65,4.9,1.82,5.45,3.62,5.83,28.56,6,34.87,38.23,21.26,55.8C153.11,100,143.77,102.14,129.15,103.52ZM124,35.88C125,19.1,107.94,7,90.74,16c-12.26,6.39-13.32,15.68-14.1,26.26-1,13.4-.36,23.16-.13,36.59.1,6,1.85,9.67,8.3,10.25,1.67.15,24.73,0,36.72.09,15.64.08,35-7.12,31.94-26.15a18.46,18.46,0,0,0-15.72-14.88,3.07,3.07,0,0,0-3.22,1.44C124.41,70.49,102.05,69.45,93,58,84.78,47.74,89,30.75,99.77,27.15c4-1.36,7.43-.16,9.09,2.71,2.68,4.64.17,8.83-3.62,11.14s-3.57,5.71-2,8c3.73,5.23,11.06,4.19,15.72-.4C122.74,44.83,123.7,40.57,124,35.88Z"/></g></g></svg>