<svg xmlns="http://www.w3.org/2000/svg" xmlns:xlink="http://www.w3.org/1999/xlink" viewBox="0 0 226.06 211.66"><defs><style>.cls-1{fill:url(#linear-gradient);}.cls-2{fill:url(#linear-gradient-2);}.cls-3{fill:#004bd8;}.cls-4{fill:#fff;}</style><linearGradient id="linear-gradient" x1="176.42" y1="90.03" x2="76.11" y2="65.76" gradientUnits="userSpaceOnUse"><stop offset="0" stop-color="#007cf2"/><stop offset="0.52" stop-color="#0060e3"/><stop offset="1" stop-color="#004bd8"/></linearGradient><linearGradient id="linear-gradient-2" x1="0" y1="189.17" x2="226.06" y2="189.17" xlink:href="#linear-gradient"/></defs><title>ecency_logo_circle_text</title><g id="Layer_2" data-name="Layer 2"><g id="Layer_1-2" data-name="Layer 1"><circle class="cls-1" cx="111.94" cy="74.43" r="74.43"/><path class="cls-2" d="M36.47,186.13H12.28a7.76,7.76,0,0,0,1.57,4.33,5.7,5.7,0,0,0,4.56,2,6.86,6.86,0,0,0,3.38-.89,7.9,7.9,0,0,0,2.11-2l11.89,1.1a17.1,17.1,0,0,1-6.58,6.81q-3.86,2.06-11.06,2.06c-4.17,0-7.46-.59-9.85-1.77a14.39,14.39,0,0,1-5.94-5.6,16.93,16.93,0,0,1-2.36-9,15.87,15.87,0,0,1,4.73-11.95q4.72-4.58,13.06-4.57,6.77,0,10.68,2a13.82,13.82,0,0,1,6,5.93,21.73,21.73,0,0,1,2,10.11ZM24.2,180.35q-.36-3.49-1.89-5a5.44,5.44,0,0,0-4-1.51,5.48,5.48,0,0,0-4.6,2.28,8.3,8.3,0,0,0-1.39,4.24Z"/><path class="cls-2" d="M63.38,186.55l11.47,1.3a16.06,16.06,0,0,1-3.11,6.22,14.46,14.46,0,0,1-5.53,4.07,21.69,21.69,0,0,1-8.56,1.46,31.12,31.12,0,0,1-8.34-.94,14.56,14.56,0,0,1-5.74-3,15.22,15.22,0,0,1-3.77-4.9,17.29,17.29,0,0,1-1.36-7.47,17.58,17.58,0,0,1,1.66-8.09,14.77,14.77,0,0,1,3.32-4.25,15.71,15.71,0,0,1,4.33-2.8,24.16,24.16,0,0,1,9-1.45q7.71,0,11.76,2.76a14.57,14.57,0,0,1,5.68,8.06L62.87,179a5.2,5.2,0,0,0-1.94-3,6.32,6.32,0,0,0-3.78-1,6.11,6.11,0,0,0-4.85,2.15q-1.84,2.15-1.85,6.5a8.44,8.44,0,0,0,1.84,5.89,6.06,6.06,0,0,0,4.68,2,6.46,6.46,0,0,0,4-1.21A7.32,7.32,0,0,0,63.38,186.55Z"/><path class="cls-2" d="M113.23,186.13H89a7.76,7.76,0,0,0,1.57,4.33,5.7,5.7,0,0,0,4.56,2,6.92,6.92,0,0,0,3.39-.89,8,8,0,0,0,2.1-2l11.89,1.1a17.1,17.1,0,0,1-6.58,6.81q-3.85,2.06-11.06,2.06-6.25,0-9.85-1.77a14.39,14.39,0,0,1-5.94-5.6,16.93,16.93,0,0,1-2.36-9,15.87,15.87,0,0,1,4.73-11.95q4.73-4.58,13.06-4.57,6.77,0,10.68,2a13.82,13.82,0,0,1,6,5.93,21.73,21.73,0,0,1,2,10.11ZM101,180.35q-.36-3.49-1.89-5a5.91,5.91,0,0,0-8.61.77,8.3,8.3,0,0,0-1.39,4.24Z"/><path class="cls-2" d="M116.65,167.39h11.24v5.13A16.79,16.79,0,0,1,133,168a13.44,13.44,0,0,1,6.29-1.35,10.29,10.29,0,0,1,7.84,3q2.83,3,2.83,9.21v20H137.83V181.57c0-2-.37-3.38-1.1-4.2a3.92,3.92,0,0,0-3.09-1.23,4.37,4.37,0,0,0-3.55,1.66q-1.36,1.66-1.37,6v15.12H116.65Z"/><path class="cls-2" d="M178.52,186.55l11.47,1.3a16.06,16.06,0,0,1-3.11,6.22,14.46,14.46,0,0,1-5.53,4.07,21.67,21.67,0,0,1-8.55,1.46,31.2,31.2,0,0,1-8.35-.94,14.56,14.56,0,0,1-5.74-3,15.22,15.22,0,0,1-3.77-4.9,20.85,20.85,0,0,1,.3-15.56,14.77,14.77,0,0,1,3.32-4.25,15.71,15.71,0,0,1,4.33-2.8,24.18,24.18,0,0,1,9.05-1.45q7.71,0,11.75,2.76a14.57,14.57,0,0,1,5.68,8.06L178,179a5.2,5.2,0,0,0-1.94-3,6.32,6.32,0,0,0-3.78-1,6.11,6.11,0,0,0-4.85,2.15q-1.84,2.15-1.85,6.5a8.44,8.44,0,0,0,1.84,5.89,6.06,6.06,0,0,0,4.68,2,6.44,6.44,0,0,0,4-1.21A7.26,7.26,0,0,0,178.52,186.55Z"/><path class="cls-2" d="M188.91,167.39h12.73l6.5,21,6-21h11.89L213.57,201q-2.15,5.76-4.36,7.78c-2.09,1.89-5.29,2.84-9.57,2.84a68,68,0,0,1-8.07-.71l-.94-8.42a19.12,19.12,0,0,0,5.8.83,5.56,5.56,0,0,0,3.45-1,7.38,7.38,0,0,0,2.24-3.5Z"/><path class="cls-3" d="M36.47,186.13H12.28a7.76,7.76,0,0,0,1.57,4.33,5.7,5.7,0,0,0,4.56,2,6.86,6.86,0,0,0,3.38-.89,7.9,7.9,0,0,0,2.11-2l11.89,1.1a17.1,17.1,0,0,1-6.58,6.81q-3.86,2.06-11.06,2.06c-4.17,0-7.46-.59-9.85-1.77a14.39,14.39,0,0,1-5.94-5.6,16.93,16.93,0,0,1-2.36-9,15.87,15.87,0,0,1,4.73-11.95q4.72-4.58,13.06-4.57,6.77,0,10.68,2a13.82,13.82,0,0,1,6,5.93,21.73,21.73,0,0,1,2,10.11ZM24.2,180.35q-.36-3.49-1.89-5a5.44,5.44,0,0,0-4-1.51,5.48,5.48,0,0,0-4.6,2.28,8.3,8.3,0,0,0-1.39,4.24Z"/><path class="cls-3" d="M63.38,186.55l11.47,1.3a16.06,16.06,0,0,1-3.11,6.22,14.46,14.46,0,0,1-5.53,4.07,21.69,21.69,0,0,1-8.56,1.46,31.12,31.12,0,0,1-8.34-.94,14.56,14.56,0,0,1-5.74-3,15.22,15.22,0,0,1-3.77-4.9,17.29,17.29,0,0,1-1.36-7.47,17.58,17.58,0,0,1,1.66-8.09,14.77,14.77,0,0,1,3.32-4.25,15.71,15.71,0,0,1,4.33-2.8,24.16,24.16,0,0,1,9-1.45q7.71,0,11.76,2.76a14.57,14.57,0,0,1,5.68,8.06L62.87,179a5.2,5.2,0,0,0-1.94-3,6.32,6.32,0,0,0-3.78-1,6.11,6.11,0,0,0-4.85,2.15q-1.84,2.15-1.85,6.5a8.44,8.44,0,0,0,1.84,5.89,6.06,6.06,0,0,0,4.68,2,6.46,6.46,0,0,0,4-1.21A7.32,7.32,0,0,0,63.38,186.55Z"/><path class="cls-3" d="M113.23,186.13H89a7.76,7.76,0,0,0,1.57,4.33,5.7,5.7,0,0,0,4.56,2,6.92,6.92,0,0,0,3.39-.89,8,8,0,0,0,2.1-2l11.89,1.1a17.1,17.1,0,0,1-6.58,6.81q-3.85,2.06-11.06,2.06-6.25,0-9.85-1.77a14.39,14.39,0,0,1-5.94-5.6,16.93,16.93,0,0,1-2.36-9,15.87,15.87,0,0,1,4.73-11.95q4.73-4.58,13.06-4.57,6.77,0,10.68,2a13.82,13.82,0,0,1,6,5.93,21.73,21.73,0,0,1,2,10.11ZM101,180.35q-.36-3.49-1.89-5a5.91,5.91,0,0,0-8.61.77,8.3,8.3,0,0,0-1.39,4.24Z"/><path class="cls-3" d="M116.65,167.39h11.24v5.13A16.79,16.79,0,0,1,133,168a13.44,13.44,0,0,1,6.29-1.35,10.29,10.29,0,0,1,7.84,3q2.83,3,2.83,9.21v20H137.83V181.57c0-2-.37-3.38-1.1-4.2a3.92,3.92,0,0,0-3.09-1.23,4.37,4.37,0,0,0-3.55,1.66q-1.36,1.66-1.37,6v15.12H116.65Z"/><path class="cls-3" d="M178.52,186.55l11.47,1.3a16.06,16.06,0,0,1-3.11,6.22,14.46,14.46,0,0,1-5.53,4.07,21.67,21.67,0,0,1-8.55,1.46,31.2,31.2,0,0,1-8.35-.94,14.56,14.56,0,0,1-5.74-3,15.22,15.22,0,0,1-3.77-4.9,20.85,20.85,0,0,1,.3-15.56,14.77,14.77,0,0,1,3.32-4.25,15.71,15.71,0,0,1,4.33-2.8,24.18,24.18,0,0,1,9.05-1.45q7.71,0,11.75,2.76a14.57,14.57,0,0,1,5.68,8.06L178,179a5.2,5.2,0,0,0-1.94-3,6.32,6.32,0,0,0-3.78-1,6.11,6.11,0,0,0-4.85,2.15q-1.84,2.15-1.85,6.5a8.44,8.44,0,0,0,1.84,5.89,6.06,6.06,0,0,0,4.68,2,6.44,6.44,0,0,0,4-1.21A7.26,7.26,0,0,0,178.52,186.55Z"/><path class="cls-3" d="M188.91,167.39h12.73l6.5,21,6-21h11.89L213.57,201q-2.15,5.76-4.36,7.78c-2.09,1.89-5.29,2.84-9.57,2.84a68,68,0,0,1-8.07-.71l-.94-8.42a19.12,19.12,0,0,0,5.8.83,5.56,5.56,0,0,0,3.45-1,7.38,7.38,0,0,0,2.24-3.5Z"/><path class="cls-4" d="M125.79,105.71c-9,.08-30.35.27-35.13-.29-3.88-.46-11-3-11.12-12.81C79.49,87,79.17,64,80,59c1.67-10.58,4.51-17.21,16.6-22.65,10.25-4.44,32.17-.78,34.53,16.93.45,3.37,1.26,3.74,2.49,4,19.62,4.13,23.95,26.26,14.6,38.32C142.24,103.26,135.82,104.76,125.79,105.71Zm-3.56-46.46c.67-11.52-11-19.82-22.82-13.66C91,50,90.26,56.35,89.72,63.62c-.67,9.2-.25,15.91-.09,25.13.07,4.13,1.27,6.64,5.7,7,1.15.1,17,0,25.22.06,10.74.06,24.07-4.89,21.94-18a12.69,12.69,0,0,0-10.8-10.22,2.15,2.15,0,0,0-2.22,1c-6.94,14.36-22.3,13.65-28.54,5.8-5.62-7.06-2.71-18.73,4.67-21.2,2.78-.94,5.11-.11,6.25,1.86,1.84,3.18.12,6.06-2.49,7.65s-2.45,3.92-1.36,5.46c2.56,3.59,7.6,2.88,10.8-.28C121.38,65.4,122,62.47,122.23,59.25Z"/></g></g></svg>