<?xml version="1.0" encoding="utf-8"?>
<!-- Generator: Adobe Illustrator 22.1.0, SVG Export Plug-In . SVG Version: 6.00 Build 0)  -->
<svg version="1.1" id="Layer_1" xmlns="http://www.w3.org/2000/svg" xmlns:xlink="http://www.w3.org/1999/xlink" x="0px" y="0px"
	 viewBox="0 0 221.2 275.2" style="enable-background:new 0 0 221.2 275.2;" xml:space="preserve">
<style type="text/css">
	.st0{fill:#1A509A;}
	.st1{fill:#4DA1F1;}
</style>
<g id="Layer_1_1_">
</g>
<g id="Layer_2_1_">
	<g>
		<path class="st0" d="M186.9,86.3c-1-3.1-6.5-16-8.4-17.6l1.8,10.9c10.5,125.7-143.9,109.9-128.5,20.8
			c4.9-20.2,15.4-34.6,34.6-43.2c13.2-6,36.5-8.6,46.3,4.2c1.2,1.5,2.6,5.2,2.5,7.6c-0.8,22-57,42.1-80.4,34.2
			c10.6,22,37.7,21.3,56.3,14.7c17.5-6.2,36.3-18.9,44.8-36c17.4-35-27-54.1-57.8-49.7C28.4,42.1,6,132.2,61.6,175.4
			C122.4,222.6,212.4,162.7,186.9,86.3z"/>
		<path class="st1" d="M160.7,51c9.3,14.7,4.6,32.2-6.2,45c-22.8,28.5-65.1,40.7-96.7,22.1C113.8,180.8,205.7,124.5,160.7,51z"/>
	</g>
</g>
<g id="Layer_3">
	<path class="st0" d="M42.2,219.2c7.4,0,11.1,3.8,11.1,11.3c0,1-0.1,2-0.2,3H36.9c0,3.4,2.5,5.2,7.6,5.2c2.5,0,4.9-0.2,7.4-0.7v4.9
		c-2.2,0.5-4.8,0.7-7.8,0.7c-8.8,0-13.3-4.2-13.3-12.5C30.7,223.2,34.5,219.2,42.2,219.2L42.2,219.2z M36.9,229.3h10.4v-0.2
		c0-3.4-1.7-5.1-5.1-5.1C38.9,224.1,37.2,225.8,36.9,229.3L36.9,229.3z M57.9,242.2v-5.6c3.3,1.2,7.1,1.9,11.3,1.9
		c5.1,0,7.6-1.7,7.6-5.1c0-2.5-1.6-3.7-4.7-3.7h-5.2c-6.8,0-10.2-3.1-10.2-9.3c0-6.8,4.8-10.2,14.5-10.2c3.7,0,7.2,0.5,10.6,1.6v5.6
		c-3.3-1.2-6.8-1.9-10.6-1.9c-5.6,0-8.4,1.6-8.4,4.9c0,2.5,1.3,3.7,4,3.7H72c7.2,0,10.8,3.1,10.8,9.3c0,7-4.6,10.4-13.8,10.4
		C65,243.8,61.2,243.3,57.9,242.2L57.9,242.2z M87.2,215.3h4.6l0.9,3.9h6.1v4.9h-5.5v11.2c0,2.3,1,3.4,2.9,3.4h2.5v4.9h-5.5
		c-4.1,0-6.1-2.2-6.1-6.6v-21.7H87.2z M113.3,219.2c7.4,0,11.1,3.8,11.1,11.3c0,1-0.1,2-0.2,3H108c0,3.4,2.5,5.2,7.6,5.2
		c2.5,0,4.9-0.2,7.4-0.7v4.9c-2.2,0.5-4.8,0.7-7.8,0.7c-8.8,0-13.3-4.2-13.3-12.5C101.9,223.2,105.7,219.2,113.3,219.2L113.3,219.2z
		 M108,229.3h10.4v-0.2c0-3.4-1.7-5.1-5.1-5.1C110.1,224.1,108.3,225.8,108,229.3L108,229.3z M139.3,219.2c7.4,0,11.1,3.8,11.1,11.3
		c0,1-0.1,2-0.2,3H134c0,3.4,2.5,5.2,7.6,5.2c2.5,0,4.9-0.2,7.4-0.7v4.9c-2.2,0.5-4.8,0.7-7.8,0.7c-8.8,0-13.3-4.2-13.3-12.5
		C127.9,223.2,131.7,219.2,139.3,219.2L139.3,219.2z M134,229.3h10.4v-0.2c0-3.4-1.7-5.1-5.1-5.1C136.1,224.1,134.3,225.8,134,229.3
		L134,229.3z M155,243.6v-24.4h4.8l0.7,3.5c2.2-2.4,4.8-3.5,7.9-3.5s5.2,1.1,6.3,3.3c2.5-2.2,5.1-3.3,7.8-3.3c5.6,0,8.4,3.1,8.4,9.3
		v15.1h-6.2v-15.3c0-2.7-1.2-4.1-3.7-4.1c-1.8,0-3.6,0.8-5.3,2.5v16.9h-6.1v-15.3c0-2.8-1.1-4.1-3.4-4.1c-1.8,0-3.5,0.8-5.1,2.5
		v16.9H155z"/>
</g>
</svg>
